<svg width="21" height="22" viewBox="0 0 21 22" fill="none" xmlns="http://www.w3.org/2000/svg" type="image/svg+xml">
<path d="M6.5 18.5L6.65761 3.72166L18.6141 2L18.5 14" stroke="url(#paint0_linear_688_16)" stroke-width="3"/>
<path d="M7.5163 17.9828C7.5163 19.9264 5.94459 21.5 4.00815 21.5C2.07172 21.5 0.5 19.9264 0.5 17.9828C0.5 16.0392 2.07172 14.4656 4.00815 14.4656C5.94459 14.4656 7.5163 16.0392 7.5163 17.9828Z" fill="url(#paint1_linear_688_16)" stroke="url(#paint2_linear_688_16)"/>
<path d="M19.4999 13.9943C19.4999 15.9378 17.9282 17.5115 15.9918 17.5115C14.0554 17.5115 12.4836 15.9378 12.4836 13.9943C12.4836 12.0507 14.0554 10.477 15.9918 10.477C17.9282 10.477 19.4999 12.0507 19.4999 13.9943Z" fill="url(#paint3_linear_688_16)" stroke="url(#paint4_linear_688_16)"/>
<defs>
<linearGradient id="paint0_linear_688_16" x1="12.5571" y1="2" x2="12.5571" y2="18.5" gradientUnits="userSpaceOnUse">
<stop stop-color="#FFA42F"/>
<stop offset="1" stop-color="#FF332F"/>
</linearGradient>
<linearGradient id="paint1_linear_688_16" x1="4.00815" y1="13.9656" x2="4.00815" y2="22" gradientUnits="userSpaceOnUse">
<stop stop-color="#FFA42F"/>
<stop offset="1" stop-color="#FF332F"/>
</linearGradient>
<linearGradient id="paint2_linear_688_16" x1="4.00815" y1="13.9656" x2="4.00815" y2="22" gradientUnits="userSpaceOnUse">
<stop stop-color="#FFA42F"/>
<stop offset="1" stop-color="#FF332F"/>
</linearGradient>
<linearGradient id="paint3_linear_688_16" x1="15.9918" y1="9.97705" x2="15.9918" y2="18.0115" gradientUnits="userSpaceOnUse">
<stop stop-color="#FFA42F"/>
<stop offset="1" stop-color="#FF332F"/>
</linearGradient>
<linearGradient id="paint4_linear_688_16" x1="15.9918" y1="9.97705" x2="15.9918" y2="18.0115" gradientUnits="userSpaceOnUse">
<stop stop-color="#FFA42F"/>
<stop offset="1" stop-color="#FF332F"/>
</linearGradient>
</defs>
</svg>
