<svg width="46" height="26" viewBox="0 0 46 26" fill="none" xmlns="http://www.w3.org/2000/svg">
<path d="M20.744 25C18.568 25 17.08 24.584 16.28 23.752C15.544 23.048 15.176 22.44 15.176 21.928V20.92C13.608 23.768 11.096 25.192 7.64 25.192C3.608 25.192 1.32 23.368 0.776 19.72C0.712 19.336 0.68 18.952 0.68 18.568C0.68 18.152 0.744 17.704 0.872 17.224C1 16.744 1.368 16.216 1.976 15.64C3.192 14.488 5.864 13.784 9.992 13.528C11.016 13.432 11.96 13.384 12.824 13.384C13.688 13.384 14.472 13.416 15.176 13.48V5.512C15.112 5.48 15.112 5.336 15.176 5.08C15.24 4.792 15.176 4.44 14.984 4.024C14.824 3.576 14.6 3.144 14.312 2.728C14.024 2.312 13.512 1.96 12.776 1.672C12.04 1.352 11.08 1.192 9.896 1.192C8.712 1.192 7.32 1.416 5.72 1.864C4.152 2.28 3 2.696 2.264 3.112L2.072 2.776C4.92 1.464 7.816 0.808 10.76 0.808C14.056 0.808 16.232 1.4 17.288 2.584C18.12 3.512 18.536 4.488 18.536 5.512V21.592C18.536 22.52 18.712 23.24 19.064 23.752C19.448 24.232 19.832 24.488 20.216 24.52L20.744 24.616H22.232V25H20.744ZM8.408 24.808C10.104 24.808 11.624 24.232 12.968 23.08C14.344 21.896 15.08 20.76 15.176 19.672V13.864C14.312 13.8 13.432 13.768 12.536 13.768C11.672 13.768 10.808 13.816 9.944 13.912C7.512 14.2 5.928 14.744 5.192 15.544C4.456 16.344 4.088 17.448 4.088 18.856C4.088 19.112 4.104 19.4 4.136 19.72C4.424 23.112 5.848 24.808 8.408 24.808ZM26.0986 25.384L25.6186 24.952L29.2186 7.576C29.3786 6.808 29.3306 6.216 29.0746 5.8C28.8186 5.352 28.3706 5.016 27.7306 4.792L27.0586 4.552L27.2026 3.736L35.1706 1.192L35.7466 1.72L34.4506 9.256C35.1546 7.784 35.9546 6.44 36.8506 5.224C37.7466 4.008 38.6746 3.048 39.6346 2.344C40.6266 1.608 41.6026 1.24 42.5626 1.24C43.5226 1.24 44.2906 1.496 44.8666 2.008C45.4746 2.52 45.7786 3.192 45.7786 4.024C45.7786 4.92 45.5226 5.64 45.0106 6.184C44.4986 6.728 43.8106 7 42.9466 7C41.6026 7 40.3546 6.328 39.2026 4.984C38.0506 5.912 37.0586 7.064 36.2266 8.44C35.3946 9.784 34.6106 11.24 33.8746 12.808L33.4906 14.776C33.1706 16.472 32.8346 18.168 32.4826 19.864C32.1626 21.56 31.8426 23.272 31.5226 25L26.0986 25.384Z" fill="#1F1F1F"/>
</svg>
