<svg width="20" height="20" viewBox="0 0 20 20" fill="none" xmlns="http://www.w3.org/2000/svg">
<path d="M1.30435 18.6957C0.583976 17.9753 0.583976 16.8073 1.30435 16.087L16.087 1.30435C16.8073 0.583975 17.9753 0.583976 18.6956 1.30435C19.416 2.02472 19.416 3.19267 18.6956 3.91304L3.91304 18.6957C3.19267 19.416 2.02472 19.416 1.30435 18.6957Z" fill="#1F1F1F"/>
<path d="M1.30435 1.30435C2.02472 0.583976 3.19267 0.583977 3.91304 1.30435L18.6957 16.087C19.416 16.8073 19.416 17.9753 18.6957 18.6957C17.9753 19.416 16.8073 19.416 16.087 18.6957L1.30435 3.91304C0.583977 3.19267 0.583977 2.02472 1.30435 1.30435Z" fill="#1F1F1F"/>
</svg>
