<svg width="20" height="20" viewBox="0 0 20 20" fill="none" xmlns="http://www.w3.org/2000/svg">
<path d="M0 1.57895C0 0.706919 0.671573 0 1.5 0L18.5 0C19.3284 0 20 0.706919 20 1.57895C20 2.45098 19.3284 3.15789 18.5 3.15789L1.5 3.15789C0.671573 3.15789 0 2.45098 0 1.57895Z" fill="#1F1F1F"/>
<path d="M0 18.4211C0 17.549 0.671573 16.8421 1.5 16.8421H18.5C19.3284 16.8421 20 17.549 20 18.4211C20 19.2931 19.3284 20 18.5 20H1.5C0.671573 20 0 19.2931 0 18.4211Z" fill="#1F1F1F"/>
<path d="M0 10C0 9.12797 0.671573 8.42105 1.5 8.42105H13.5C14.3284 8.42105 15 9.12797 15 10C15 10.872 14.3284 11.5789 13.5 11.5789H1.5C0.671573 11.5789 0 10.872 0 10Z" fill="#1F1F1F"/>
</svg>
